<?xml version="1.0" encoding="UTF-8"?>
<svg width="256" height="256" viewBox="0 0 256 256" fill="none" xmlns="http://www.w3.org/2000/svg">

  <!-- Sombra 3D del círculo -->
  <ellipse cx="128" cy="230" rx="110" ry="20" fill="#000000" opacity="0.15"/>

  <!-- Círculo principal -->
  <circle cx="128" cy="128" r="120" fill="white" stroke="#E53935" stroke-width="4"/>

  <!-- === CASA ROJA (techo más abajo) === -->
  <g transform="translate(60, 95)">
    <!-- Pared -->
    <rect x="20" y="50" width="40" height="35" fill="#E53935"/>
    <!-- Puerta -->
    <rect x="35" y="60" width="10" height="25" fill="#B71C1C"/>

    <!-- Techo base -->
    <path d="M0 50 L40 20 L80 50 Z" fill="#C62828"/>

    <!-- Cerdas de paja (cepillo) -->
    <g stroke="#B71C1C" stroke-width="1.2" fill="none">
      <path d="M10 50 Q8 45, 10 40"/>
      <path d="M14 51 Q12 46, 14 41"/>
      <path d="M18 52 Q16 47, 18 42"/>
      <path d="M22 53 Q20 48, 22 43"/>
      <path d="M26 54 Q24 49, 26 44"/>
      <path d="M30 55 Q28 50, 30 45"/>
      <path d="M34 55 Q32 50, 34 45"/>
      <path d="M38 54 Q36 49, 38 44"/>
      <path d="M42 53 Q40 48, 42 43"/>
      <path d="M46 52 Q44 47, 46 42"/>
      <path d="M50 51 Q48 46, 50 41"/>
      <path d="M54 50 Q52 45, 54 40"/>
      <path d="M58 51 Q56 46, 58 41"/>
      <path d="M62 52 Q60 47, 62 42"/>
      <path d="M66 53 Q64 48, 66 43"/>
      <path d="M70 54 Q68 49, 70 44"/>
    </g>
  </g>

  <!-- === ÁRBOL PEQUEÑO === -->
  <g transform="translate(140, 130)">
    <circle cx="12" cy="16" r="14" fill="#66BB6A"/>
    <circle cx="6" cy="10" r="8" fill="#81C784"/>
    <circle cx="18" cy="10" r="8" fill="#81C784"/>
    <rect x="11" y="24" width="3" height="39" fill="#43A047"/>
  </g>

  <!-- === PASTO JUSTO DEBAJO DE LA CASA (y=135) === -->
  <g transform="translate(0, 180)">
    <!-- Base verde clara -->
    <path d="M40 5 Q128 0, 216 5 L216 13 L40 13 Z" fill="#4CAF50"/>
    <!-- Capa oscura para textura -->
    <path d="M50 5 Q128 -2, 206 5" fill="#388E3C" opacity="0.9"/>
    <!-- Detalle de hierba (pequeñas líneas) -->
    <path d="M70 5 Q72 3, 74 5 M90 5 Q92 3, 94 5 M110 5 Q112 3, 114 5 M130 5 Q132 3, 134 5 M150 5 Q152 3, 154 5 M170 5 Q172 3, 174 5 M190 5 Q192 3, 194 5" 
          stroke="#2E7D32" stroke-width="1.5" fill="none"/>
  </g>

  <!-- === TEXTO PRINCIPAL === -->
  <text x="128" y="115" font-family="Arial, Helvetica, sans-serif" font-size="18" font-weight="bold" fill="#1B5E20" text-anchor="middle">
    Almacen 
    <tspan fill="#2E7D32" font-size="28" font-weight="bold">RURAL</tspan>
    <tspan font-size="12" baseline-shift="super" fill="#2E7D32">®</tspan>
  </text>

  <!-- === LEMA === -->
  <text x="120" y="200" font-family="Arial, Helvetica, sans-serif" font-size="8" fill="#2E7D32" text-anchor="middle" font-style="italic">
    “Comprometidos con la producción agropecuaria”
  </text>

</svg>